<svg width="32" height="32" viewBox="0 0 32 32" xmlns="http://www.w3.org/2000/svg">
  <defs>
    <linearGradient id="faviconGradient" x1="0%" y1="0%" x2="100%" y2="100%">
      <stop offset="0%" style="stop-color:#3B82F6;stop-opacity:1" />
      <stop offset="100%" style="stop-color:#8B5CF6;stop-opacity:1" />
    </linearGradient>
    <linearGradient id="faviconAccent" x1="0%" y1="0%" x2="100%" y2="100%">
      <stop offset="0%" style="stop-color:#10B981;stop-opacity:1" />
      <stop offset="100%" style="stop-color:#3B82F6;stop-opacity:1" />
    </linearGradient>
  </defs>
  
  <!-- Background shape -->
  <rect x="2" y="2" width="28" height="28" rx="6" fill="url(#faviconGradient)" stroke="#E5E7EB" stroke-width="1"/>
  
  <!-- Letter S -->
  <path d="M8 10 Q8 7 11 7 L13 7 Q16 7 16 10 L16 12 Q16 15 13 15 L11 15 Q8 15 8 12 L8 10 Z" fill="white" opacity="0.9"/>
  <path d="M8 18 Q8 15 11 15 L13 15 Q16 15 16 18 L16 20 Q16 23 13 23 L11 23 Q8 23 8 20 L8 18 Z" fill="white" opacity="0.9"/>
  
  <!-- Letter S accent -->
  <circle cx="12" cy="11" r="1" fill="url(#faviconAccent)"/>
  <circle cx="12" cy="21" r="1" fill="url(#faviconAccent)"/>
</svg>
